<svg width="16" height="16" viewBox="0 0 16 16" fill="none" xmlns="http://www.w3.org/2000/svg">
<g id="fi-sr-cross" clip-path="url(#clip0_13_8476)">
<path id="Vector" d="M8.94265 7.99999L15.8046 1.13799C15.9261 1.01225 15.9933 0.84385 15.9918 0.669052C15.9902 0.494255 15.9201 0.327046 15.7965 0.203441C15.6729 0.0798355 15.5057 0.00972286 15.3309 0.00820391C15.1561 0.00668497 14.9877 0.0738812 14.862 0.19532L7.99998 7.05732L1.13798 0.19532C1.01224 0.0738812 0.843843 0.00668497 0.669046 0.00820391C0.494248 0.00972286 0.327039 0.0798355 0.203434 0.203441C0.0798286 0.327046 0.00971596 0.494255 0.00819701 0.669052C0.00667807 0.84385 0.0738743 1.01225 0.195313 1.13799L7.05731 7.99999L0.195313 14.862C0.0703323 14.987 0.00012207 15.1565 0.00012207 15.3333C0.00012207 15.5101 0.0703323 15.6796 0.195313 15.8047C0.320331 15.9296 0.48987 15.9998 0.666646 15.9998C0.843422 15.9998 1.01296 15.9296 1.13798 15.8047L7.99998 8.94265L14.862 15.8047C14.987 15.9296 15.1565 15.9998 15.3333 15.9998C15.5101 15.9998 15.6796 15.9296 15.8046 15.8047C15.9296 15.6796 15.9998 15.5101 15.9998 15.3333C15.9998 15.1565 15.9296 14.987 15.8046 14.862L8.94265 7.99999Z" fill="#858D9D"/>
</g>
<defs>
<clipPath id="clip0_13_8476">
<rect width="16" height="16" fill="white"/>
</clipPath>
</defs>
</svg>
